<svg xmlns="http://www.w3.org/2000/svg" viewBox="0 0 512 512" width="512" height="512">
  <defs>
    <linearGradient id="g_cy" x1="0" y1="0" x2="0" y2="1"><stop offset="0" stop-color="#9FE8F0"/><stop offset="1" stop-color="#5FCEDB"/></linearGradient>
    <linearGradient id="g_band" x1="0" y1="1" x2="0" y2="0"><stop offset="0" stop-color="#5FCEDB" stop-opacity="0.95"/><stop offset="0.45" stop-color="#5FCEDB" stop-opacity="0.55"/><stop offset="1" stop-color="#5FCEDB" stop-opacity="0"/></linearGradient>
    <linearGradient id="g_ray" x1="0" y1="1" x2="0" y2="0"><stop offset="0" stop-color="#AEEAF2" stop-opacity="0.92"/><stop offset="0.6" stop-color="#7BD8E4" stop-opacity="0.4"/><stop offset="1" stop-color="#7BD8E4" stop-opacity="0"/></linearGradient>
    <radialGradient id="g_sun" cx="50%" cy="50%" r="50%"><stop offset="0" stop-color="#F2C589"/><stop offset="0.5" stop-color="#D99A5E"/><stop offset="1" stop-color="#D99A5E" stop-opacity="0"/></radialGradient>
  </defs>
  <rect x="4" y="4" width="504" height="504" rx="108" fill="#0B0E15" stroke="#1E2430" stroke-width="4"/>
  <path d="M250,330 L394,330 L394,300 C362,288 348,314 322,300 C296,286 284,314 262,302 L250,314 Z" fill="url(#g_band)"/>
  <g>
    <rect x="262" y="258" width="8" height="70" fill="url(#g_ray)"/>
    <rect x="282" y="233" width="8" height="95" fill="url(#g_ray)"/>
    <rect x="302" y="250.5" width="8" height="77.5" fill="url(#g_ray)"/>
    <rect x="320" y="218" width="8" height="110" fill="url(#g_ray)"/>
    <rect x="340" y="245.5" width="8" height="82.5" fill="url(#g_ray)"/>
    <rect x="360" y="228" width="8" height="100" fill="url(#g_ray)"/>
    <rect x="380" y="255.5" width="8" height="72.5" fill="url(#g_ray)"/>
  </g>
  <path d="M150,188 L236,258 L150,328" fill="none" stroke="url(#g_cy)" stroke-width="40" stroke-linecap="round" stroke-linejoin="round"/>
  <path d="M250,330 Q322,321 394,330" fill="none" stroke="#C6F1F6" stroke-width="5" stroke-linecap="round"/>
  <circle cx="392" cy="128" r="56" fill="url(#g_sun)"/>
  <circle cx="392" cy="128" r="24" fill="#EBB06F"/>
</svg>
